<svg width="336" height="310" viewBox="0 0 336 310" fill="none" xmlns="http://www.w3.org/2000/svg">
<path d="M155.077 77.5C155.077 120.302 120.362 155 77.5385 155C34.7151 155 0 120.302 0 77.5C0 34.6979 34.7151 0 77.5385 0C120.362 0 155.077 34.6979 155.077 77.5Z" fill="black"/>
<path d="M336 77.5C336 120.302 301.285 155 258.462 155C215.638 155 180.923 120.302 180.923 77.5C180.923 34.6979 215.638 0 258.462 0C301.285 0 336 34.6979 336 77.5Z" fill="black"/>
<path d="M244.462 232.5C244.462 275.302 209.746 310 166.923 310C124.1 310 89.3846 275.302 89.3846 232.5C89.3846 189.698 124.1 155 166.923 155C209.746 155 244.462 189.698 244.462 232.5Z" fill="#FD6666"/>
</svg>
